#!OML:ASF E:\motion texture\Top Level 1\Subject 1\Session 1\male.ASF
:FULLY-SPECIFIED
:DEGREES
515
root -19.314 17.3993 5.53157 203.014 -82.0695 -193.766
lowerback 6.47065 -4.1712 4.50422
upperback -0.404875 -5.16274 6.10367
thorax -3.87369 -2.67546 4.34425
lowerneck -19.6078 0.324046 -3.3935
upperneck 10.4636 1.00424 2.10638
head 6.33292 0.524039 1.33545
rclavicle -1.98785e-015 9.54166e-015
rhumerus 34.1785 19.9654 -82.4954
rradius 54.6778
rwrist 1.11319
rhand -32.4703 -33.6768
rfingers 7.12502
rthumb -5.70281 -423.58
lclavicle -1.98785e-015 9.54166e-015
lhumerus 30.8965 -13.2579 107.203
lradius 37.9979
lwrist 23.0443
lhand -13.1903 41.6616
lfingers 7.12502
lthumb 12.9098 71.2423
rfemur -43.4249 -4.49526 14.0023
rtibia 26.1108
rfoot 6.59649 -13.9747
rtoes 3.47222
lfemur -11.622 4.91114 -28.9528
ltibia 31.3308
lfoot -21.9155 2.58932
ltoes -5.96745
516
root -19.4706 17.3806 5.54664 203.005 -81.6954 -193.441
lowerback 6.67505 -4.28899 4.58103
upperback -0.320733 -5.30723 6.24452
thorax -3.88838 -2.75145 4.47838
lowerneck -19.8689 0.439926 -3.30928
upperneck 10.2017 1.15387 2.03409
head 6.2868 0.594507 1.31415
rclavicle 1.39149e-014 6.36111e-015
rhumerus 34.7698 19.8124 -83.1967
rradius 53.4509
rwrist 0.494244
rhand -32.3725 -34.1503
rfingers 7.12502
rthumb -5.60839 -424.056
lclavicle 1.39149e-014 6.36111e-015
lhumerus 31.9072 -12.9881 107.482
lradius 36.9457
lwrist 22.8097
lhand -13.1121 41.7262
lfingers 7.12502
lthumb 12.9852 71.3021
rfemur -44.0082 -4.40314 14.2343
rtibia 25.6939
rfoot 7.11304 -13.4314
rtoes 4.03224
lfemur -11.6847 5.02845 -29.1893
ltibia 31.8089
lfoot -22.1238 2.7374
ltoes -6.64919
517
root -19.6285 17.3627 5.56076 202.946 -81.3251 -193.063
lowerback 6.8787 -4.40285 4.66201
upperback -0.231639 -5.4466 6.38242
thorax -3.89775 -2.82514 4.6071
lowerneck -20.1348 0.553694 -3.22416
upperneck 9.93083 1.29814 1.96589
head 6.23868 0.662388 1.29349
rclavicle 5.48646e-014 -3.81667e-014
rhumerus 35.2841 19.62 -83.9429
rradius 52.2449
rwrist -0.111705
rhand -32.2531 -34.6311
rfingers 7.12502
rthumb -5.49307 -424.54
lclavicle 5.48646e-014 -3.81667e-014
lhumerus 32.8707 -12.7734 107.745
lradius 35.8853
lwrist 22.4679
lhand -13.0262 41.7728
lfingers 7.12502
lthumb 13.0679 71.3434
rfemur -44.5778 -4.31767 14.4957
rtibia 25.3843
rfoot 7.58373 -12.8816
rtoes 4.65931
lfemur -11.7736 5.14927 -29.4084
ltibia 32.3207
lfoot -22.2845 2.86381
ltoes -7.37092
518
root -19.7877 17.3458 5.57386 202.844 -80.9574 -192.636
lowerback 7.0794 -4.51333 4.74692
upperback -0.140481 -5.58156 6.51739
thorax -3.90357 -2.89688 4.73055
lowerneck -20.3985 0.668041 -3.13317
upperneck 9.6525 1.43995 1.89589
head 6.18794 0.728718 1.27104
rclavicle -2.54444e-014 -4.6118e-014
rhumerus 35.7154 19.3863 -84.7375
rradius 51.0641
rwrist -0.689262
rhand -32.1064 -35.1032
rfingers 7.12502
rthumb -5.35148 -425.016
lclavicle -2.54444e-014 -4.6118e-014
lhumerus 33.7827 -12.615 107.984
lradius 34.8264
lwrist 22.049
lhand -12.9192 41.8141
lfingers 7.12502
lthumb 13.1711 71.3781
rfemur -45.1367 -4.2347 14.7841
rtibia 25.1818
rfoot 8.00399 -12.3257
rtoes 5.34928
lfemur -11.8926 5.27519 -29.6096
ltibia 32.8674
lfoot -22.3923 2.96856
ltoes -8.11711
519
root -19.9483 17.3299 5.58593 202.708 -80.5921 -192.173
lowerback 7.27833 -4.61883 4.83473
upperback -0.0462778 -5.71 6.64782
thorax -3.90573 -2.96555 4.84736
lowerneck -20.6583 0.781434 -3.03796
upperneck 9.36448 1.57721 1.82638
head 6.13361 0.792586 1.24752
rclavicle -3.65764e-014 3.81667e-014
rhumerus 36.0637 19.1045 -85.5732
rradius 49.9155
rwrist -1.23272
rhand -31.9296 -35.5585
rfingers 7.12502
rthumb -5.18071 -425.475
lclavicle -3.65764e-014 3.81667e-014
lhumerus 34.64 -12.5186 108.198
lradius 33.7799
lwrist 21.5811
lhand -12.7957 41.8468
lfingers 7.12502
lthumb 13.2901 71.403
rfemur -45.6813 -4.15284 15.0945
rtibia 25.0842
rfoot 8.36812 -11.7638
rtoes 6.09501
lfemur -12.0382 5.40592 -29.7942
ltibia 33.4476
lfoot -22.4436 3.05338
ltoes -8.88417
520
root -20.1102 17.3151 5.59691 202.535 -80.2283 -191.67
lowerback 7.47695 -4.71952 4.92476
upperback 0.0506961 -5.83205 6.77413
thorax -3.90525 -3.03123 4.95848
lowerneck -20.9133 0.895489 -2.93949
upperneck 9.06905 1.71227 1.75742
head 6.07623 0.855068 1.22338
rclavicle -2.54444e-014 2.70347e-014
rhumerus 36.3292 18.7751 -86.4451
rradius 48.8054
rwrist -1.73549
rhand -31.7228 -35.9859
rfingers 7.12502
rthumb -4.9811 -425.907
lclavicle -2.54444e-014 2.70347e-014
lhumerus 35.4403 -12.4858 108.379
lradius 32.7548
lwrist 21.0838
lhand -12.6573 41.8712
lfingers 7.12502
lthumb 13.4235 71.4187
rfemur -46.2077 -4.06544 15.4229
rtibia 25.0844
rfoot 8.67056 -11.2015
rtoes 6.89141
lfemur -12.2094 5.54206 -29.9599
ltibia 34.0614
lfoot -22.4356 3.12303
ltoes -9.65983
521
root -20.2733 17.3018 5.60674 202.333 -79.8665 -191.139
lowerback 7.67536 -4.81539 5.01581
upperback 0.149041 -5.94763 6.8949
thorax -3.90374 -3.09378 5.06308
lowerneck -21.1581 1.01049 -2.83613
upperneck 8.76627 1.84503 1.68826
head 6.015 0.916099 1.19803
rclavicle -1.27222e-014 -9.38264e-014
rhumerus 36.5101 18.3957 -87.3478
rradius 47.7417
rwrist -2.1949
rhand -31.4958 -36.3939
rfingers 7.12502
rthumb -4.76189 -426.32
lclavicle -1.27222e-014 -9.38264e-014
lhumerus 36.1812 -12.5232 108.518
lradius 31.7584
lwrist 20.5692
lhand -12.4969 41.8806
lfingers 7.12502
lthumb 13.5781 71.4178
rfemur -46.7156 -3.97051 15.7638
rtibia 25.18
rfoot 8.90578 -10.6425
rtoes 7.72506
lfemur -12.4074 5.6831 -30.1076
ltibia 34.7104
lfoot -22.3712 3.18438
ltoes -10.4538
522
root -20.4376 17.2898 5.61541 202.108 -79.5063 -190.587
lowerback 7.87455 -4.90595 5.10689
upperback 0.249581 -6.05612 7.00962
thorax -3.90095 -3.15287 5.1611
lowerneck -21.3929 1.12611 -2.7286
upperneck 8.4582 1.97537 1.61847
head 5.95065 0.975534 1.17146
rclavicle 1.27222e-014 -5.24792e-014
rhumerus 36.6094 17.9646 -88.2711
rradius 46.7302
rwrist -2.61145
rhand -31.2421 -36.7744
rfingers 7.12502
rthumb -4.5169 -426.706
lclavicle 1.27222e-014 -5.24792e-014
lhumerus 36.8602 -12.6358 108.607
lradius 30.7998
lwrist 20.0364
lhand -12.3076 41.8738
lfingers 7.12502
lthumb 13.7605 71.3988
rfemur -47.1997 -3.8672 16.1128
rtibia 25.3659
rfoot 9.06872 -10.0883
rtoes 8.5859
lfemur -12.6287 5.8289 -30.238
ltibia 35.3936
lfoot -22.2546 3.24154
ltoes -11.265
523
root -20.6032 17.2795 5.62287 201.855 -79.1481 -190.013
lowerback 8.0741 -4.99099 5.19767
upperback 0.352534 -6.15735 7.11869
thorax -3.89637 -3.20842 5.253
lowerneck -21.6165 1.24237 -2.61861
upperneck 8.14569 2.1037 1.54876
head 5.88326 1.03358 1.14419
rclavicle -7.4743e-014 -3.18055e-015
rhumerus 36.6298 17.482 -89.2049
rradius 45.7787
rwrist -2.99249
rhand -30.9535 -37.1138
rfingers 7.12502
rthumb -4.23823 -427.051
lclavicle -7.4743e-014 -3.18055e-015
lhumerus 37.4775 -12.8294 108.635
lradius 29.8871
lwrist 19.4889
lhand -12.0797 41.8471
lfingers 7.12502
lthumb 13.9802 71.357
rfemur -47.6567 -3.75263 16.4662
rtibia 25.6351
rfoot 9.15648 -9.543
rtoes 9.46352
lfemur -12.8724 5.98022 -30.3493
ltibia 36.1105
lfoot -22.0883 3.29435
ltoes -12.0772
524
root -20.77 17.2707 5.6291 201.584 -78.7935 -189.426
lowerback 8.26928 -5.07093 5.28969
upperback 0.458041 -6.25215 7.21988
thorax -3.88765 -3.2608 5.33503
lowerneck -21.828 1.3589 -2.50743
upperneck 7.83183 2.22963 1.48183
head 5.81368 1.09024 1.11727
rclavicle -7.63333e-014 7.15625e-014
rhumerus 36.5742 16.9463 -90.1412
rradius 44.8953
rwrist -3.34992
rhand -30.6269 -37.4107
rfingers 7.12502
rthumb -3.92281 -427.354
lclavicle -7.63333e-014 7.15625e-014
lhumerus 38.0312 -13.1114 108.592
lradius 29.0326
lwrist 18.9408
lhand -11.8128 41.8044
lfingers 7.12502
lthumb 14.2373 71.2964
rfemur -48.0858 -3.62798 16.8193
rtibia 25.9818
rfoot 9.16712 -9.01171
rtoes 10.3498
lfemur -13.1403 6.13524 -30.4428
ltibia 36.8618
lfoot -21.8734 3.34479
ltoes -12.8764
